<?xml version="1.0" encoding="UTF-8"?>
<svg xmlns="http://www.w3.org/2000/svg" xmlns:xlink="http://www.w3.org/1999/xlink" width="375pt" height="374.999991pt" viewBox="0 0 375 374.999991" version="1.2">
<defs>
<clipPath id="clip1">
  <path d="M 112.5 120.5625 L 262.5 120.5625 L 262.5 254.8125 L 112.5 254.8125 Z M 112.5 120.5625 "/>
</clipPath>
</defs>
<g id="surface1">
<g clip-path="url(#clip1)" clip-rule="nonzero">
<path style=" stroke:none;fill-rule:nonzero;fill:rgb(0%,0%,0%);fill-opacity:1;" d="M 250.363281 138.070312 L 216.667969 121.128906 C 215.003906 120.296875 213.039062 120.378906 211.457031 121.363281 C 209.882812 122.351562 208.921875 124.078125 208.921875 125.949219 L 208.921875 139.363281 C 198.605469 130.804688 185.34375 125.949219 171.433594 125.949219 C 138.957031 125.949219 112.53125 154.933594 112.53125 190.566406 C 112.53125 226.199219 138.957031 255.1875 171.433594 255.1875 C 194.195312 255.1875 215.074219 239.035156 224.632812 214.042969 C 225.441406 211.914062 224.835938 209.5 223.117188 208.019531 C 221.398438 206.535156 218.933594 206.308594 216.96875 207.4375 C 190.53125 222.699219 180.699219 223.25 171.417969 222.394531 C 159.039062 221.269531 149.757812 208.296875 150.042969 197.886719 C 150.316406 187.847656 159 185.4375 166.230469 185.183594 C 178.332031 184.660156 188.355469 198.871094 188.441406 199.007812 C 189.769531 200.949219 192.210938 201.796875 194.445312 201.097656 C 196.683594 200.394531 198.210938 198.3125 198.210938 195.953125 L 198.210938 179.796875 L 240.566406 179.796875 C 252.644531 179.796875 262.46875 169.917969 262.46875 157.773438 C 262.46875 149.378906 257.832031 141.828125 250.363281 138.070312 Z M 240.566406 169.027344 L 192.855469 169.027344 C 189.894531 169.027344 187.5 171.441406 187.5 174.414062 L 187.5 182.59375 C 182.03125 178.191406 174.625 174.132812 165.851562 174.417969 C 146.75 175.097656 139.625 186.835938 139.332031 197.59375 C 138.910156 213.023438 151.585938 231.40625 170.453125 233.125 C 180.414062 234.019531 190.257812 232.863281 206.460938 225.1875 C 197.503906 237.214844 184.828125 244.417969 171.433594 244.417969 C 144.859375 244.417969 123.238281 220.261719 123.238281 190.566406 C 123.238281 160.875 144.859375 136.71875 171.433594 136.71875 C 186.816406 136.71875 201.214844 143.9375 209.9375 156.035156 C 211.308594 157.925781 213.730469 158.714844 215.925781 157.992188 C 218.136719 157.273438 219.628906 155.203125 219.628906 152.871094 L 219.628906 134.660156 L 245.574219 147.703125 C 249.394531 149.621094 251.761719 153.480469 251.761719 157.773438 C 251.761719 163.976562 246.738281 169.027344 240.566406 169.027344 Z M 240.566406 169.027344 "/>
</g>
<path style=" stroke:none;fill-rule:nonzero;fill:rgb(0%,0%,0%);fill-opacity:1;" d="M 235.695312 152.871094 C 235.695312 155.84375 233.296875 158.257812 230.339844 158.257812 C 227.382812 158.257812 224.984375 155.84375 224.984375 152.871094 C 224.984375 149.898438 227.382812 147.488281 230.339844 147.488281 C 233.296875 147.488281 235.695312 149.898438 235.695312 152.871094 Z M 235.695312 152.871094 "/>
</g>
</svg>
